<?xml version="1.0" standalone="no"?>
<!DOCTYPE svg PUBLIC "-//W3C//DTD SVG 20010904//EN"
 "http://www.w3.org/TR/2001/REC-SVG-20010904/DTD/svg10.dtd">
<svg version="1.0" xmlns="http://www.w3.org/2000/svg"
 width="260.000000pt" height="336.000000pt" viewBox="0 0 260.000000 336.000000"
 preserveAspectRatio="xMidYMid meet">

<g transform="translate(0.000000,336.000000) scale(0.100000,-0.100000)"
fill="#000000" stroke="none">
<path d="M10 1685 l0 -1665 1290 0 1290 0 0 1448 0 1447 -218 218 -217 217
-1073 0 -1072 0 0 -1665z m2100 1395 l0 -210 210 0 210 0 0 -1395 0 -1395
-1230 0 -1230 0 0 1605 0 1605 1020 0 1020 0 0 -210z m220 5 l155 -155 -158 0
-157 0 0 155 c0 85 1 155 3 155 1 0 72 -70 157 -155z"/>
<path d="M1000 2261 c-55 -11 -98 -38 -117 -74 -13 -24 -19 -66 -23 -168 -4
-116 -8 -140 -24 -158 -11 -12 -27 -21 -38 -21 -15 0 -18 -8 -18 -50 0 -42 3
-50 18 -50 11 0 27 -9 38 -21 16 -18 20 -42 24 -158 4 -112 9 -142 25 -170 24
-41 73 -67 138 -74 l47 -5 0 49 c0 44 -2 49 -22 49 -54 1 -68 35 -68 165 0
118 -14 166 -58 201 -26 21 -26 21 -5 28 12 4 31 26 42 50 17 35 21 62 21 153
0 96 3 114 21 137 12 15 30 26 45 26 22 0 24 4 24 50 0 55 0 55 -70 41z"/>
<path d="M1530 2220 c0 -45 2 -48 30 -54 45 -9 60 -53 60 -176 0 -110 13 -157
51 -184 l23 -16 -22 -16 c-38 -27 -46 -55 -52 -191 -6 -143 -18 -173 -67 -173
-21 0 -23 -4 -23 -50 l0 -50 48 7 c126 16 161 74 162 265 0 112 12 147 52 155
26 5 28 9 28 53 0 44 -2 48 -28 53 -40 8 -52 43 -52 155 -1 110 -10 164 -37
201 -24 32 -75 57 -130 64 l-43 5 0 -48z"/>
<path d="M780 591 c0 -146 -8 -166 -62 -159 -27 4 -29 3 -26 -26 3 -28 7 -31
38 -34 50 -4 96 28 109 75 6 21 11 91 11 156 l0 117 -35 0 -35 0 0 -129z"/>
<path d="M973 705 c-44 -19 -67 -57 -59 -99 8 -40 19 -50 95 -91 60 -32 75
-60 45 -82 -23 -17 -66 -17 -109 1 l-35 15 0 -33 c0 -29 4 -34 31 -40 82 -16
167 3 188 42 16 30 13 74 -5 100 -9 13 -41 35 -72 50 -68 33 -85 57 -58 78 23
16 79 19 107 4 17 -10 19 -7 19 19 0 20 -7 34 -19 41 -27 14 -90 12 -128 -5z"/>
<path d="M1270 698 c-62 -32 -93 -91 -88 -171 5 -61 23 -95 72 -131 39 -30
143 -30 182 0 51 38 68 70 72 138 5 83 -22 136 -83 166 -54 26 -100 25 -155
-2z m141 -67 c25 -26 29 -37 29 -86 0 -49 -4 -60 -29 -86 -48 -47 -116 -38
-146 21 -30 58 -10 151 38 170 43 17 78 11 108 -19z"/>
<path d="M1570 545 l0 -175 35 0 35 0 0 128 0 127 83 -127 c77 -121 84 -128
115 -128 l32 0 0 175 0 175 -30 0 -30 0 0 -127 0 -127 -81 127 c-81 127 -81
127 -120 127 l-39 0 0 -175z"/>
</g>
</svg>
